# File created by Blade
# Date/Time:  Thu Sep 25 18:48:06 2014
# Frame Rate: 120.000 fps
#------------------------------------------------------
:FULLY-SPECIFIED
:DEGREES
703
root -0.161232 32.845424 -5.242544 103.331464 6.294423 -1.125507
Spine 58.561887 0.496735 3.938137
Head -18.139736 -2.483713 10.408666
LeftShoulder -20.038999 18.837464 19.197920
LeftArm -82.612867 24.146079 -108.453780
LeftForeArm 10.646474 -0.000000 25.004938
LeftHand -15.081708 -0.000000 -69.006562
LeftHandThumb1 -26.253704 0.000000 33.147579
RightShoulder -23.914357 -29.756441 -37.457693
RightArm -55.002731 -18.879458 91.099155
RightForeArm -26.475740 -0.000000 4.756958
RightHand 2.005080 -0.000000 71.098429
RightHandThumb1 -24.326973 -0.000000 -32.862282
LeftUpLeg -111.227172 2.765999 -9.778753
LeftLeg -2.757030 -0.000000 0.000000
LeftFoot 6.770577 1.620938 -11.966893
LeftToeBase 12.836979 -0.000000 -0.000000
RightUpLeg -109.809361 1.760062 15.493576
RightLeg 1.638643 -0.000000 -0.000000
RightFoot 3.076815 -2.911937 2.341556
RightToeBase 0.884234 -0.000000 -0.000000
704
root -0.161131 32.845740 -5.239661 103.322833 6.267075 -1.126973
Spine 58.570626 0.581544 3.905695
Head -18.086113 -2.473080 10.712583
LeftShoulder -19.992548 18.870076 19.337272
LeftArm -82.559518 24.148178 -108.424757
LeftForeArm 10.671078 -0.000000 24.976916
LeftHand -15.090513 0.000000 -69.035160
LeftHandThumb1 -26.253704 0.000000 33.147579
RightShoulder -23.904060 -29.710965 -37.332798
RightArm -55.161812 -18.922714 91.199756
RightForeArm -26.362689 -0.000000 4.807599
RightHand 2.010091 -0.000000 71.147167
RightHandThumb1 -24.326973 -0.000000 -32.862282
LeftUpLeg -111.212720 2.767188 -9.800799
LeftLeg -2.751299 -0.000000 0.000000
LeftFoot 6.749711 1.613044 -11.977190
LeftToeBase 12.901851 -0.000000 -0.000000
RightUpLeg -109.814223 1.759108 15.480391
RightLeg 1.670246 -0.000000 -0.000000
RightFoot 3.060265 -2.903840 2.320604
RightToeBase 0.909798 -0.000000 -0.000000
705
root -0.161581 32.846324 -5.237055 103.320500 6.233135 -1.130326
Spine 58.570142 0.686370 3.876316
Head -18.050597 -2.466899 11.035350
LeftShoulder -19.925744 18.889865 19.508314
LeftArm -82.481324 24.141818 -108.390575
LeftForeArm 10.737861 0.000000 24.916913
LeftHand -15.058055 -0.000000 -69.054645
LeftHandThumb1 -26.253704 0.000000 33.147579
RightShoulder -23.942484 -29.695764 -37.180546
RightArm -55.226757 -18.933629 91.208810
RightForeArm -26.345487 -0.000000 4.795699
RightHand 2.021300 -0.000000 71.134884
RightHandThumb1 -24.326973 -0.000000 -32.862282
LeftUpLeg -111.206277 2.770787 -9.818607
LeftLeg -2.745966 -0.000000 0.000000
LeftFoot 6.757509 1.630348 -11.955652
LeftToeBase 12.823980 -0.000000 -0.000000
RightUpLeg -109.822292 1.758996 15.451311
RightLeg 1.691999 -0.000000 -0.000000
RightFoot 3.050501 -2.909618 2.300214
RightToeBase 0.926418 -0.000000 -0.000000
706
root -0.160409 32.846766 -5.235125 103.316260 6.216918 -1.129256
Spine 58.543773 0.696949 3.858054
Head -17.922292 -2.501699 11.097416
LeftShoulder -19.879184 18.938467 19.553907
LeftArm -82.437988 24.127473 -108.370293
LeftForeArm 10.728309 -0.000000 24.918037
LeftHand -15.068936 -0.000000 -69.102436
LeftHandThumb1 -26.253704 0.000000 33.147579
RightShoulder -23.916391 -29.749215 -37.169147
RightArm -55.175935 -18.870002 91.165392
RightForeArm -26.418413 -0.000000 4.764687
RightHand 2.027062 -0.000000 71.133663
RightHandThumb1 -24.326973 -0.000000 -32.862282
LeftUpLeg -111.202483 2.779232 -9.805122
LeftLeg -2.726845 -0.000000 0.000000
LeftFoot 6.731927 1.652106 -11.951144
LeftToeBase 12.804629 -0.000000 -0.000000
RightUpLeg -109.831598 1.758304 15.448466
RightLeg 1.720331 -0.000000 -0.000000
RightFoot 3.046844 -2.910705 2.256471
RightToeBase 0.898835 -0.000000 -0.000000
707
root -0.160869 32.847517 -5.233544 103.321333 6.212307 -1.132423
Spine 58.480898 0.707263 3.829393
Head -17.716565 -2.516138 11.159538
LeftShoulder -19.819669 18.992894 19.604927
LeftArm -82.404453 24.081647 -108.375126
LeftForeArm 10.729379 -0.000000 24.905893
LeftHand -15.042821 0.000000 -69.087794
LeftHandThumb1 -26.253704 0.000000 33.147579
RightShoulder -23.854500 -29.855733 -37.164179
RightArm -55.055547 -18.778938 91.091451
RightForeArm -26.515816 -0.000000 4.738454
RightHand 2.039395 0.000000 71.147767
RightHandThumb1 -24.326973 -0.000000 -32.862282
LeftUpLeg -111.213819 2.787045 -9.796374
LeftLeg -2.708093 -0.000000 0.000000
LeftFoot 6.711029 1.661921 -11.972710
LeftToeBase 12.873019 -0.000000 -0.000000
RightUpLeg -109.837094 1.762852 15.437311
RightLeg 1.725303 -0.000000 -0.000000
RightFoot 3.048778 -2.923388 2.271789
RightToeBase 0.886461 -0.000000 -0.000000
708
root -0.160298 32.847813 -5.231816 103.320582 6.209949 -1.130389
Spine 58.412818 0.676930 3.820737
Head -17.493732 -2.588800 11.077087
LeftShoulder -19.739598 19.058026 19.609307
LeftArm -82.366234 24.028077 -108.391941
LeftForeArm 10.705995 -0.000000 24.908574
LeftHand -15.053313 0.000000 -69.070707
LeftHandThumb1 -26.253704 0.000000 33.147579
RightShoulder -23.778400 -29.982953 -37.224153
RightArm -54.837302 -18.586382 90.911134
RightForeArm -26.777176 -0.000000 4.607510
RightHand 2.132294 -0.000000 71.173041
RightHandThumb1 -24.326973 -0.000000 -32.862282
LeftUpLeg -111.222308 2.786581 -9.796238
LeftLeg -2.682023 -0.000000 0.000000
LeftFoot 6.706350 1.660964 -11.972121
LeftToeBase 12.832623 -0.000000 -0.000000
RightUpLeg -109.845194 1.758204 15.433816
RightLeg 1.748417 -0.000000 -0.000000
RightFoot 3.037559 -2.922898 2.281363
RightToeBase 0.895689 -0.000000 -0.000000
